<svg xmlns="http://www.w3.org/2000/svg" viewBox="0 0 266.67 150"><defs><style>.cls-1{fill:#534741;}.cls-2{fill:#001386;}.cls-3{fill:#fff;}.cls-4{fill:#ff7000;}.cls-5{fill:#00add8;}.cls-6{fill:#fffdfc;}</style></defs><title>cristalina</title><g id="Layer_2" data-name="Layer 2"><g id="Layer_1-2" data-name="Layer 1"><rect class="cls-1" width="266.67" height="150"/><path class="cls-2" d="M119,76.86a7.49,7.49,0,0,1,1.52,1.25v-.74c0-.6,0-1.2,0-1.79a.28.28,0,0,0-.21-.31,2.41,2.41,0,0,1-1.44-1.5,2.55,2.55,0,0,0-.13-.29,2.78,2.78,0,0,1-.24-2.25,1.79,1.79,0,0,1,1.64-1.42c.44,0,.37,0,.37-.42s0-1.1,0-1.65a2.83,2.83,0,0,1,0-.5,1.85,1.85,0,0,1,1.89-1.62,5.26,5.26,0,0,1,1.53.14l.28,0a2.38,2.38,0,0,1,2.27,2.44c0,.42,0,.84,0,1.25,0,.25,0,.26.25.26h1.83c.11,0,.22,0,.32,0a7.16,7.16,0,0,1,1.61.3,2.41,2.41,0,0,1,1.57,2.09A3.66,3.66,0,0,1,132,74c1.66-.22,3.29-.07,4.93-.13a1.43,1.43,0,0,0-.18-.55,3.09,3.09,0,0,1-.27-2.36,1.82,1.82,0,0,1,1.85-1.35,24.92,24.92,0,0,1,4.88.39,12.49,12.49,0,0,1,2,.47,5.81,5.81,0,0,1,2.74,1.94l.09.08c.1-.12.06-.26.06-.38V67.91a3.71,3.71,0,0,1,0-.47A1.87,1.87,0,0,1,150,65.62a6.26,6.26,0,0,1,1.67.15,4.87,4.87,0,0,1,1.11.26c.1,0,.09-.07.1-.12a2.59,2.59,0,0,1,2.19-2,3.75,3.75,0,0,1,1.49.07c.27.07.56.09.84.16a3,3,0,0,1,1.87,4.52,2.92,2.92,0,0,1-1.2,1.11l-.25.12a2.62,2.62,0,0,1,1.4,1.76c.17-.15.33-.31.5-.45A6.41,6.41,0,0,1,162.32,70a12.71,12.71,0,0,1,2.94-.35h5.52A17.92,17.92,0,0,1,174,70a8.54,8.54,0,0,1,2.31.74,4.77,4.77,0,0,1,2.75,4.43V76s0,0,0,.06a.08.08,0,0,0,.1,0,6.68,6.68,0,0,1,3.5-1.9,9,9,0,0,1,2.2-.23h3.3a1.54,1.54,0,0,0-.22-.61,3,3,0,0,1-.23-2.29,1.8,1.8,0,0,1,1.8-1.36,24.63,24.63,0,0,1,4.92.39,15,15,0,0,1,1.74.38A6.28,6.28,0,0,1,198.86,72a4.77,4.77,0,0,1,1.4,3.32c0,2.23.07,4.46,0,6.69a5,5,0,0,1-3.42,4.78,9.56,9.56,0,0,1-3.26.61c-2.56.06-5.13,0-7.7,0a9.32,9.32,0,0,1-4-.84,6.49,6.49,0,0,1-2.71-2.19c-.11.13-.07.26-.07.38a3.08,3.08,0,0,1-.18,1.13,2.22,2.22,0,0,1-1.83,1.47,5.08,5.08,0,0,1-1.74,0,2.24,2.24,0,0,1-1.82-1.54,1.19,1.19,0,0,0-.11-.26,2.57,2.57,0,0,1-.37-1.43V75.81c0-.44.08-.37-.4-.44-.21,0-.43,0-.64,0h-6.38a10.9,10.9,0,0,0-1.14.07c-.34,0-.34,0-.34.41q0,4.28,0,8.56a5.62,5.62,0,0,1,0,.82,2.31,2.31,0,0,1-2.32,2.15,5.5,5.5,0,0,1-1.46-.09,2.33,2.33,0,0,1-1.44-.92c-.12,0-.15.13-.21.2a2.44,2.44,0,0,1-1.91.82,7.8,7.8,0,0,1-1.18-.08A2.19,2.19,0,0,1,154,86.24s-.05-.13-.16-.16l0,0a2.39,2.39,0,0,1-2.39,1.26c-.27,0-.55,0-.82-.06a2.27,2.27,0,0,1-2-1.48,8.94,8.94,0,0,1-.46-1.06c-.08,0-.1,0-.13.08a5.44,5.44,0,0,1-2.94,2.05,10.6,10.6,0,0,1-2.85.45c-2.56.06-5.11,0-7.67,0A9.24,9.24,0,0,1,130,86.23a5.66,5.66,0,0,1-2.64-2.9,7,7,0,0,1-.55-1.62,4.89,4.89,0,0,1,0-.54v-2a4.46,4.46,0,0,1,1.56-3.55l.13-.12c0-.11-.12-.07-.18-.07h-1.51c-.17,0-.23.06-.22.23a2.62,2.62,0,0,1,0,.28q0,4.38,0,8.74a3.13,3.13,0,0,1-.3,1.42,2.14,2.14,0,0,1-1.6,1.2,4.79,4.79,0,0,1-2,0A2.2,2.2,0,0,1,121,85.82c-.12-.33-.31-.61-.44-1a5.21,5.21,0,0,1-2.14,1.8.07.07,0,0,0-.07,0h0c-.48.15-1,.33-1.45.45,0,0-.08,0-.06,0h0a.55.55,0,0,0-.31,0,12.8,12.8,0,0,1-2.14.19H105a2.74,2.74,0,0,1-2.5-1.47c0-.06,0-.15-.12-.16s0,0,0,0-.07.18-.11.26a2.19,2.19,0,0,1-1.72,1.3c-.25,0-.5,0-.75.08l-.35,0a3.26,3.26,0,0,1-1.34-.29A2.52,2.52,0,0,1,97,85.88s0-.08-.06-.08h0a.44.44,0,0,0-.1-.33,2.38,2.38,0,0,1-.35-1.35c0-.64,0-1.28,0-1.92s0-1.47,0-2.21q0-1.52,0-3V75a3.73,3.73,0,0,1-1.87.36,6.33,6.33,0,0,0-2,.09c-.53.11-.57.18-.55.71a.41.41,0,0,0,0,.11c0,.85,0,1.7,0,2.56q0,1.82,0,3.63c0,.76,0,1.52,0,2.27a4.1,4.1,0,0,1-.16,1,2.16,2.16,0,0,1-1.74,1.56,6,6,0,0,1-1.64.08,2.31,2.31,0,0,1-1.76-1l-.06-.07s-.06,0-.07,0a2.7,2.7,0,0,1-2.33,1.1H79.47c-1.67,0-3.34,0-5,0A12.51,12.51,0,0,1,71,87a5.53,5.53,0,0,1-3.68-3.18,9.34,9.34,0,0,1-.8-2.18,9.69,9.69,0,0,1-.16-1.7c0-2.5,0-5,0-7.49a8.07,8.07,0,0,1,.4-2.57A5.27,5.27,0,0,1,70,66.52,8.59,8.59,0,0,1,73,66c1.36,0,2.72,0,4.09,0l.39,0a14.1,14.1,0,0,0,1.72,0,1.1,1.1,0,0,0,.36,0h3.32a1,1,0,0,0,.35,0l.39,0a2.53,2.53,0,0,1,.78.08,2.22,2.22,0,0,0,.63.08,2.35,2.35,0,0,1,1.84,1.52,4.44,4.44,0,0,1,.24,1.08,10.92,10.92,0,0,1,0,1.28,3.41,3.41,0,0,1-.9,1.83,2.91,2.91,0,0,1-1.91.54c-.49,0-1,0-1.46,0-.69,0-1.38,0-2.08,0H73.64a2.74,2.74,0,0,0-1,.15c-.37.13-.45.25-.45.63v7a.62.62,0,0,0,.2.55,1,1,0,0,0,.68.28,4.87,4.87,0,0,0,.54,0h10a12.42,12.42,0,0,1,1.73.24,2.52,2.52,0,0,1,.71.3V79.33q0-1.38,0-2.76c0-.24,0-.48,0-.72,0-.46,0-.92,0-1.39a6,6,0,0,1,.54-1.9,8.58,8.58,0,0,1,.61-.84l.57-.58L88,71a5.67,5.67,0,0,1,1.55-.79l.81-.27a2.34,2.34,0,0,0,.52-.08c.46-.06.91-.14,1.37-.21l.81,0a6.22,6.22,0,0,1,2.15.09.49.49,0,0,0,.17,0,2.57,2.57,0,0,1,1.34.52c.08.06.15.07.21,0a2.15,2.15,0,0,1,.76-.57s.08,0,.06-.06a.07.07,0,0,0-.09,0h0c0-.05,0-.05,0-.07a3.45,3.45,0,0,1-1.05-1.31s0-.06,0-.06h0a.79.79,0,0,0-.19-.49,2.61,2.61,0,0,1,.46-3.1,3,3,0,0,1,2.31-.76c.34,0,.65.15,1,.18a3,3,0,0,1,2.81,3.16,2.88,2.88,0,0,1-1.52,2.51l-.37.19a2.37,2.37,0,0,1,1.1.89,3.14,3.14,0,0,1,.41,1.35c.24-.23.43-.44.64-.62a6.45,6.45,0,0,1,3.13-1.31c.78-.14,1.57-.14,2.35-.23a3.32,3.32,0,0,0,.63,0c.42,0,.83,0,1.24,0a3,3,0,0,1,.84,0,.71.71,0,0,0,.53.07l.65.19a2.75,2.75,0,0,1,1.29,4.33,4.78,4.78,0,0,1-.44.46l-.77.43a2.66,2.66,0,0,1-1.08.17c-.38,0-.76,0-1.15,0h-2.21c-.12,0-.26,0-.33.11s.17,0,.24,0h4.26l.25,0a2.57,2.57,0,0,0,.83,0c.71,0,1.44,0,2.15.12l.71.13a13.83,13.83,0,0,1,1.55.34,1,1,0,0,0,.44.12A3.81,3.81,0,0,0,119,76.86Zm-16.28,1.92a.68.68,0,0,0-.17-.28.3.3,0,0,0,0,.23,17.42,17.42,0,0,0,0,1.77v1.82c.1,0,.15-.08.21-.13a2.25,2.25,0,0,1,1.39-.48l5.7,0h4.51a1.56,1.56,0,0,0,.43,0c.07,0,.17,0,.18-.14h-.21l-4.62,0a22.52,22.52,0,0,1-3.07-.22l-.51-.13A5.89,5.89,0,0,1,102.72,78.78Zm91.47-4.51h-.38c-2.81,0-5.61,0-8.42,0a12.9,12.9,0,0,0-2.06.15,6.82,6.82,0,0,0-3.06,1.22,4,4,0,0,0-1.72,3.25q0,1.19,0,2.37a3.56,3.56,0,0,0,.71,2.06,5.53,5.53,0,0,0,2.34,1.77,8.69,8.69,0,0,0,3.52.71c.73,0,1.48,0,2.22,0,2,0,4,.06,5.94-.06a8.06,8.06,0,0,0,2.47-.51,4.63,4.63,0,0,0,1.72-1.14A4.47,4.47,0,0,0,198.6,81c0-1.88,0-3.75,0-5.63a8.11,8.11,0,0,0-.06-1.1,4.06,4.06,0,0,0-1.47-2.66,6.54,6.54,0,0,0-3-1.26c-.7-.12-1.42-.18-2.13-.24s-1.62-.06-2.43,0a1.25,1.25,0,0,0-1.23.88,2.7,2.7,0,0,0,.05,1.92,1.29,1.29,0,0,0,1.16.87,10.75,10.75,0,0,0,1.39,0,10.55,10.55,0,0,1,2.63.21A1.17,1.17,0,0,1,194.19,74.27Zm-51.31,0h-.39c-2.75,0-5.49,0-8.24,0a14.3,14.3,0,0,0-2.17.14A7.1,7.1,0,0,0,129,75.57a3.91,3.91,0,0,0-1.76,2.79,14.7,14.7,0,0,0,0,3.18,3.65,3.65,0,0,0,1.2,2.37,7.07,7.07,0,0,0,3.43,1.69,9.76,9.76,0,0,0,2.16.2c2.63,0,5.25.07,7.88-.06a7.45,7.45,0,0,0,2.67-.59,4.11,4.11,0,0,0,2.66-3.82c.05-1.35,0-2.7,0-4,0-.91,0-1.82,0-2.72a3.91,3.91,0,0,0-1.14-2.63,5.41,5.41,0,0,0-2.71-1.45,21,21,0,0,0-5.3-.43,1.3,1.3,0,0,0-1.23,1,2.81,2.81,0,0,0,.09,1.72,1.33,1.33,0,0,0,1.16.93c.47,0,.93,0,1.39,0a11.38,11.38,0,0,1,2.67.21A1.17,1.17,0,0,1,142.88,74.27ZM78.17,66.39c-1.75,0-3.49,0-5.23,0a8.37,8.37,0,0,0-2.23.29,4.86,4.86,0,0,0-3,2.16A6,6,0,0,0,66.86,72c0,2.63,0,5.27,0,7.91a7.43,7.43,0,0,0,.37,2.43,4.66,4.66,0,0,0,3.13,3.09,9.88,9.88,0,0,0,3,.41c3.42,0,6.83,0,10.24,0h.22a1.54,1.54,0,0,0,1.51-1A3.4,3.4,0,0,0,85.1,82a1.11,1.11,0,0,0-1-.6h-10c-.44,0-.88,0-1.32-.07A3.6,3.6,0,0,1,71.51,81a1.41,1.41,0,0,1-.91-1,3.35,3.35,0,0,1-.07-.71c0-2.12,0-4.25,0-6.37a6.85,6.85,0,0,1,0-.79,1.09,1.09,0,0,1,.49-.83,2.29,2.29,0,0,1,.75-.33,5.91,5.91,0,0,1,1.45-.15q5.25,0,10.5,0a1.41,1.41,0,0,0,1.5-1.08,4,4,0,0,0,0-2.26,1.45,1.45,0,0,0-1.48-1.09C81.91,66.41,80,66.39,78.17,66.39ZM109.4,82.07H105c-.28,0-.57,0-.86,0a1.86,1.86,0,0,0,.13,3.71h7.63c.93,0,1.86,0,2.79,0a7.91,7.91,0,0,0,2.66-.64,3.85,3.85,0,0,0,2.26-2.57,6.51,6.51,0,0,0,.06-3,3.63,3.63,0,0,0-2.06-2.6,7.38,7.38,0,0,0-3.26-.69h-6.88a1.69,1.69,0,0,1-.32,0,1,1,0,0,1-.92-.69,1,1,0,0,1,.26-1.12,1.21,1.21,0,0,1,.92-.31c1.15,0,2.29,0,3.44,0a2,2,0,0,0,.93-.22,1.84,1.84,0,0,0,.7-2.66,1.93,1.93,0,0,0-1.61-.86c-.63,0-1.26,0-1.9,0a23.21,23.21,0,0,0-2.35.17,6.6,6.6,0,0,0-2.69.9,3.39,3.39,0,0,0-1.64,2.44,8.11,8.11,0,0,0,0,2.46,3.55,3.55,0,0,0,1.34,2.26,5.93,5.93,0,0,0,2.25,1,12.23,12.23,0,0,0,2.94.34c1.88,0,3.75,0,5.63,0a2.54,2.54,0,0,1,.39,0,1,1,0,0,1,.85,1.37,1.07,1.07,0,0,1-1.1.69C112.84,82.08,111.12,82.07,109.4,82.07Zm68-2.81V74.68a4.85,4.85,0,0,0-.12-1.14,3.89,3.89,0,0,0-2.42-2.77,8.72,8.72,0,0,0-3.41-.71c-1.68,0-3.36,0-5.05,0-.82,0-1.64,0-2.47.07a9.17,9.17,0,0,0-2.83.69,3.93,3.93,0,0,0-2.54,3.81c0,3.12,0,6.25,0,9.38a3,3,0,0,0,.08.67,1.4,1.4,0,0,0,1.12,1.08,5.8,5.8,0,0,0,1.25.07,1.42,1.42,0,0,0,1.4-1.2,3.43,3.43,0,0,0,0-.64q0-4.33,0-8.67c0-.23,0-.45,0-.68a.57.57,0,0,1,.29-.47,1.73,1.73,0,0,1,.57-.22,5.68,5.68,0,0,1,1.24-.14h6.95a4.16,4.16,0,0,1,1.16.16c.65.17.82.4.82,1.07v8.92a4.7,4.7,0,0,0,0,.53,1.41,1.41,0,0,0,1.18,1.27,7.08,7.08,0,0,0,1.22.07,1.46,1.46,0,0,0,1.46-1.31,4.61,4.61,0,0,0,0-.53Zm-52.54,0V74.28c0-.38,0-.38.37-.38h2.39a11.91,11.91,0,0,0,1.58,0,1.38,1.38,0,0,0,1.19-1,2.93,2.93,0,0,0,0-1.66,1.44,1.44,0,0,0-1.21-1,3,3,0,0,0-.42,0h-3.51c-.35,0-.35,0-.35-.37,0-.62,0-1.24,0-1.86a3.55,3.55,0,0,0-.06-.64,1.38,1.38,0,0,0-1.13-1.18,5.64,5.64,0,0,0-1.36-.06,1.31,1.31,0,0,0-1.23.92,2.46,2.46,0,0,0-.14.81c0,.7,0,1.41,0,2.11,0,.17,0,.28-.23.27s-.29,0-.43,0a1.38,1.38,0,0,0-1.35,1,2.64,2.64,0,0,0,0,1.69,1.24,1.24,0,0,0,.25.43,1.56,1.56,0,0,0,1.28.52c.44,0,.44,0,.44.44,0,3.2,0,6.4,0,9.6a3.65,3.65,0,0,0,.08.74,1.44,1.44,0,0,0,1.18,1.11,6.23,6.23,0,0,0,1.14.06,1.42,1.42,0,0,0,1.47-1.29,3.66,3.66,0,0,0,0-.57Zm-38.38.32c0,1.4,0,2.8,0,4.19a5.55,5.55,0,0,0,.06.82,1.35,1.35,0,0,0,1.11,1.2,4.25,4.25,0,0,0,1.74-.07,1.19,1.19,0,0,0,.84-.76,2.87,2.87,0,0,0,.17-1.16q0-4.32,0-8.66a1,1,0,0,1,.54-.94,2.21,2.21,0,0,1,.35-.16,4,4,0,0,1,1.19-.23c.65,0,1.29,0,1.93,0A1.53,1.53,0,0,0,96,72.29a3.45,3.45,0,0,0-.06-1A1.45,1.45,0,0,0,94.39,70c-.7,0-1.4,0-2.1.08a9.83,9.83,0,0,0-3,.66,4.18,4.18,0,0,0-2.62,2.92,6.25,6.25,0,0,0-.17,1.49C86.5,76.63,86.5,78.09,86.5,79.54Zm65.91-3.65c0-2.64,0-5.28,0-7.92a4.87,4.87,0,0,0,0-.54,1.34,1.34,0,0,0-1.22-1.36,5.1,5.1,0,0,0-1.46,0,1.29,1.29,0,0,0-1.1,1,2.76,2.76,0,0,0-.09.81v16c0,.14,0,.28,0,.43a1.44,1.44,0,0,0,1.19,1.38,6.11,6.11,0,0,0,1.21.08,1.43,1.43,0,0,0,1.42-1.18,3.16,3.16,0,0,0,0-.75Q152.42,79.88,152.41,75.89Zm5.21,2v-6.3A1.49,1.49,0,0,0,156,70a3,3,0,0,1-.43,0,1.86,1.86,0,0,0-.91.09,1.25,1.25,0,0,0-.86.85,2.19,2.19,0,0,0-.13.77c0,4.14,0,8.28,0,12.42a2.2,2.2,0,0,0,.15.77,1.32,1.32,0,0,0,1.05.88,5.74,5.74,0,0,0,1.24.07,1.44,1.44,0,0,0,1.43-1.26,4.07,4.07,0,0,0,.05-.61Zm-56.79,0V71.73c0-.13,0-.26,0-.39A1.4,1.4,0,0,0,99.53,70a5.83,5.83,0,0,0-1.32,0,1.27,1.27,0,0,0-1.07.74,2.3,2.3,0,0,0-.19,1c0,4.11,0,8.22,0,12.33a2.62,2.62,0,0,0,0,.28,1.44,1.44,0,0,0,1.11,1.41,4.37,4.37,0,0,0,1.35.08,1.46,1.46,0,0,0,1-.5,1.79,1.79,0,0,0,.37-1.2Zm54.8-9.32H156a2.27,2.27,0,0,0,1.55-.8,2.18,2.18,0,0,0,.37-2,1.74,1.74,0,0,0-.61-.94,2.59,2.59,0,0,0-2.5-.45,2.12,2.12,0,0,0-1.12,3.34A2.22,2.22,0,0,0,155.63,68.54Zm-56.77,0a2.36,2.36,0,0,0,1.31-.32,2.11,2.11,0,0,0,.06-3.64,2.64,2.64,0,0,0-2.47-.14,2.12,2.12,0,0,0-1.07,2.88,1.69,1.69,0,0,0,.52.67A2.38,2.38,0,0,0,98.86,68.55Zm55.22.71a2.79,2.79,0,0,0,0,.6l.46-.21Z"/><path class="cls-3" d="M126.19,97a.78.78,0,0,0,.17-.34q.94-2.64,1.91-5.28c.16-.43.17-.44.65-.44s.74,0,1.11,0,.4.07.43.39c.11,1,.21,1.92.31,2.88l.39,3.63c.06.58.13,1.16.19,1.74,0,.34,0,.38-.35.38s-.67,0-1,0-.35,0-.39-.36c-.1-.81-.18-1.61-.27-2.42l-.3-2.85s0-.09-.08-.11a1,1,0,0,0-.18.4q-.87,2.37-1.72,4.74c-.16.44-.16.44-.61.44h-.61c-.32,0-.36,0-.47-.33-.37-1-.74-2.06-1.12-3.1-.23-.65-.47-1.3-.71-1.94a.39.39,0,0,0-.15-.26c-.07.64-.15,1.26-.21,1.89-.13,1.19-.25,2.37-.38,3.56,0,.3-.08.34-.38.34s-.69,0-1,0-.36-.07-.33-.36c.07-.7.15-1.4.22-2.1.14-1.24.27-2.47.4-3.7.09-.83.18-1.66.28-2.49,0-.3.11-.37.41-.37s.79,0,1.18,0,.44,0,.57.39c.46,1.26.91,2.52,1.36,3.77.18.52.37,1,.56,1.55A.84.84,0,0,0,126.19,97Z"/><path class="cls-3" d="M119,76.86a3.81,3.81,0,0,1-.73-.36.84.84,0,0,0-.07-.35A25.89,25.89,0,0,0,117,72.74a37.55,37.55,0,0,0-6-9.72c-1-1.25-2.1-2.51-3.26-3.66-1.31-1.29-2.71-2.48-4.14-3.64A38,38,0,0,0,96.09,51,24.56,24.56,0,0,0,88,48.53a13,13,0,0,0-4.48.24A7.89,7.89,0,0,0,79,51.67a8.93,8.93,0,0,0-1.71,4.85,16.7,16.7,0,0,0,.38,4.73A26.81,26.81,0,0,0,79.17,66a14.1,14.1,0,0,1-1.72,0,25.53,25.53,0,0,1-1.24-4.47,16.38,16.38,0,0,1,0-6.58,8.94,8.94,0,0,1,7.54-7.08,15.32,15.32,0,0,1,6,.32A31.31,31.31,0,0,1,97.17,51a41,41,0,0,1,6.46,4.3q2,1.6,3.81,3.41a59.78,59.78,0,0,1,4.69,5.12,38,38,0,0,1,6.06,10.49A22.39,22.39,0,0,1,119,76.86Z"/><path class="cls-3" d="M92.1,84.72c0-.75,0-1.51,0-2.27l.2.15a42.69,42.69,0,0,0,4.35,3.08c.09,0,.17.16.31.13h0c0,.06,0,.06.06.08a2.52,2.52,0,0,0,1.08,1.18,3.26,3.26,0,0,0,1.34.29l.35,0,.17.11a25.94,25.94,0,0,0,6.72,2.3,14.43,14.43,0,0,0,5.4.1,8.19,8.19,0,0,0,4.16-2,2.72,2.72,0,0,0,.64-.71h0l.06,0c.49-.12,1-.3,1.45-.45,0,.16-.09.27-.16.38a8.9,8.9,0,0,1-5.08,3.84,12.6,12.6,0,0,1-3.23.52,21.82,21.82,0,0,1-9-1.69A39.15,39.15,0,0,1,92.54,85C92.4,84.92,92.25,84.82,92.1,84.72Z"/><path class="cls-3" d="M156.2,93.16c0-.18.05-.37.09-.56s.14-.34.42-.34a5.17,5.17,0,0,1,.68,0c.33,0,.43.14.43.48v6.73c0,.44-.08.52-.52.52q-.36,0-.72,0c-.29,0-.4-.09-.44-.39,0-.07,0-.14,0-.21s0-.11,0-.15-.14,0-.18.06a3.53,3.53,0,0,1-4.11.33,4,4,0,0,1-2-4.22,4,4,0,0,1,3.28-3.22,3.16,3.16,0,0,1,2.89.87C156.06,93.12,156.1,93.19,156.2,93.16Zm-.12,3c0-.13,0-.27,0-.4a1.73,1.73,0,0,0-.07-.31,2.27,2.27,0,0,0-4.44.24,2.42,2.42,0,0,0,1.18,2.56A2.31,2.31,0,0,0,156.08,96.17Z"/><path class="cls-3" d="M191.74,93.17c.1-.19,0-.39.11-.57s.14-.34.42-.34a5.12,5.12,0,0,1,.68,0c.33,0,.44.15.44.49v6.76c0,.37-.1.47-.47.48s-.52,0-.79,0-.36-.06-.42-.33a3,3,0,0,1-.05-.42c-.07,0-.12,0-.16,0a3.58,3.58,0,0,1-4.7-.06,3.84,3.84,0,0,1-1.32-4.12,3.79,3.79,0,0,1,3.2-2.91,3.14,3.14,0,0,1,2.87.83S191.64,93.16,191.74,93.17Zm-4.67,3s0,.14,0,.25a2.32,2.32,0,0,0,1.91,2,2.36,2.36,0,0,0,2.59-2.91,2.33,2.33,0,0,0-2.81-1.75A2.36,2.36,0,0,0,187.07,96.21Z"/><path class="cls-3" d="M137.08,96.81h-2.54c-.29,0-.31,0-.21.31A2.25,2.25,0,0,0,137,98.53a2.72,2.72,0,0,0,1.11-.56c.31-.25.39-.24.65,0l.37.44c.25.32.24.46-.07.72a4,4,0,0,1-6.54-2.33,3.91,3.91,0,0,1,7.23-2.72,4.23,4.23,0,0,1,.47,2.29.33.33,0,0,1-.32.36,2.19,2.19,0,0,1-.36,0Zm1.41-1.49a2.06,2.06,0,0,0-2-1.62,2.24,2.24,0,0,0-2.16,1.62Z"/><path class="cls-3" d="M179,93.17c.09,0,.11-.06.15-.1a2.74,2.74,0,0,1,2.57-.85,2.87,2.87,0,0,1,2.49,2.62,6.63,6.63,0,0,1,.07,1v3.44a2.62,2.62,0,0,1,0,.28c0,.34-.14.44-.47.44s-.57,0-.86,0-.42-.07-.43-.41v-3.9a2.07,2.07,0,0,0-.24-1,1.67,1.67,0,0,0-2.57-.34,1.58,1.58,0,0,0-.56,1.27c0,1.2,0,2.41,0,3.61,0,.79,0,.82-.79.82h-.61c-.27,0-.35-.09-.37-.37V92.76a.45.45,0,0,1,.46-.49h.65a.4.4,0,0,1,.43.38A2.82,2.82,0,0,0,179,93.17Z"/><path class="cls-3" d="M161.75,100.14a3.27,3.27,0,0,1-2.15-.72,2.36,2.36,0,0,1-.58-.68c-.16-.29-.13-.41.12-.61s.3-.24.46-.35c.31-.24.41-.24.64.07a2,2,0,0,0,1,.65,1.72,1.72,0,0,0,1.26-.09.69.69,0,0,0,0-1.31,5.24,5.24,0,0,0-.85-.27,5.09,5.09,0,0,1-1.38-.57,2.16,2.16,0,0,1-1-2.52,1.94,1.94,0,0,1,1.21-1.33,3.42,3.42,0,0,1,2.34-.15,3,3,0,0,1,1.51,1.15.26.26,0,0,1,0,.4c-.21.18-.41.37-.63.53s-.32.17-.52,0a3,3,0,0,0-.36-.35,1.39,1.39,0,0,0-1.29-.19.9.9,0,0,0-.42.27.48.48,0,0,0,0,.75,1.54,1.54,0,0,0,.66.34,13.94,13.94,0,0,1,1.42.48,4.49,4.49,0,0,1,.53.29,2.23,2.23,0,0,1,0,3.74A3.61,3.61,0,0,1,161.75,100.14Z"/><path class="cls-3" d="M169.72,100.15a4,4,0,1,1,.08-8,3.91,3.91,0,0,1,2.2.73c.36.27.38.38.14.75-.11.17-.22.34-.34.5s-.32.33-.6.11a2.75,2.75,0,0,0-1.2-.52,2,2,0,0,0-1.5.34,2.4,2.4,0,0,0-1.09,2.41,2.3,2.3,0,0,0,1.73,2,2.2,2.2,0,0,0,1.87-.36c.56-.39.57-.38,1,.18.1.15.21.29.3.44s.14.33-.1.51a4.37,4.37,0,0,1-1.59.78A2.93,2.93,0,0,1,169.72,100.15Z"/><path class="cls-3" d="M146,97.17V94.88c0-.33,0-.33-.3-.33-.67,0-.7,0-.7-.72,0-.13,0-.26,0-.39,0-.36.11-.46.48-.47h.14c.39,0,.36,0,.36-.37a4.91,4.91,0,0,1,.06-.86,2.69,2.69,0,0,1,1.11-1.81,2.37,2.37,0,0,1,1.29-.38c.33,0,.46.12.47.44s0,.55,0,.82-.09.36-.35.41l-.21,0a.78.78,0,0,0-.58.73c0,.26,0,.52,0,.79s0,.19.19.18.43,0,.64,0,.39.11.4.39v.79c0,.29-.11.39-.39.4h-.65c-.13,0-.2,0-.19.18v4.65a1.38,1.38,0,0,1,0,.29.33.33,0,0,1-.32.33q-.56,0-1.11,0c-.21,0-.32-.16-.33-.44s0-.62,0-.93V97.17Z"/><path class="cls-3" d="M175.41,96.2c0,1.11,0,2.22,0,3.33,0,.41-.06.47-.48.47s-.62,0-.93,0-.34-.09-.36-.34a2.09,2.09,0,0,1,0-.25V92.89a2.09,2.09,0,0,1,0-.25c0-.23.14-.36.36-.37h1a.46.46,0,0,1,.41.52C175.4,93.93,175.41,95.06,175.41,96.2Z"/><path class="cls-3" d="M196.91,93.61V96.8c0,.42-.11.53-.53.53-.27,0-.55,0-.82,0s-.38-.09-.41-.38a2.18,2.18,0,0,1,0-.25V90.5c0-.46.09-.53.55-.54h.72c.43,0,.5.08.5.5Z"/><path class="cls-3" d="M117.76,98.66V95.58a1.67,1.67,0,0,1,0-.32.29.29,0,0,1,.31-.29c.35,0,.71,0,1.07,0a.38.38,0,0,1,.37.37,2.62,2.62,0,0,1,0,.28v6.09c0,.56,0,.61-.6.62h-.72c-.36,0-.44-.09-.45-.45V98.66Z"/><path class="cls-3" d="M174.51,91.29H174c-.25,0-.36-.1-.38-.34s0-.69,0-1a.3.3,0,0,1,.32-.31q.56,0,1.11,0c.22,0,.32.13.33.35s0,.64,0,1-.14.35-.39.37h-.5Z"/><path class="cls-3" d="M118.62,92.27h.5c.3,0,.4.12.41.42s0,.55,0,.82-.13.45-.46.45-.59,0-.89,0-.4-.09-.41-.4,0-.6,0-.9.11-.37.4-.39Z"/><path class="cls-3" d="M196,100c-.17,0-.34,0-.5,0s-.31-.06-.34-.28a4.79,4.79,0,0,1,0-1.07c0-.23.12-.31.36-.31s.67,0,1,0a.34.34,0,0,1,.39.37c0,.32,0,.65,0,1s-.11.31-.34.32S196.19,100,196,100Z"/><path class="cls-4" d="M118.38,86.67a.07.07,0,0,1,.07,0S118.44,86.71,118.38,86.67Z"/><path class="cls-5" d="M194.19,74.27a1.17,1.17,0,0,0-.71-.35,10.55,10.55,0,0,0-2.63-.21,10.75,10.75,0,0,1-1.39,0,1.29,1.29,0,0,1-1.16-.87,2.7,2.7,0,0,1-.05-1.92,1.25,1.25,0,0,1,1.23-.88c.81,0,1.62,0,2.43,0s1.43.12,2.13.24a6.54,6.54,0,0,1,3,1.26,4.06,4.06,0,0,1,1.47,2.66,8.11,8.11,0,0,1,.06,1.1c0,1.88,0,3.75,0,5.63a4.47,4.47,0,0,1-1.13,3.11,4.63,4.63,0,0,1-1.72,1.14,8.06,8.06,0,0,1-2.47.51c-2,.12-4,0-5.94.06-.74,0-1.49,0-2.22,0a8.69,8.69,0,0,1-3.52-.71,5.53,5.53,0,0,1-2.34-1.77,3.56,3.56,0,0,1-.71-2.06q0-1.19,0-2.37a4,4,0,0,1,1.72-3.25,6.82,6.82,0,0,1,3.06-1.22,12.9,12.9,0,0,1,2.06-.15c2.81,0,5.61,0,8.42,0Zm-5,3.73h-2.64c-.89,0-1.77,0-2.65,0a1.58,1.58,0,0,0-1.59,1.6c0,.26,0,.52,0,.78a1.64,1.64,0,0,0,1.68,1.7c1.11,0,2.22,0,3.33,0h5.83a1.59,1.59,0,0,0,1.63-1.62c0-.69,0-1.39,0-2.08,0-.41,0-.38-.4-.38Z"/><path class="cls-5" d="M142.88,74.27a1.17,1.17,0,0,0-.7-.35,11.38,11.38,0,0,0-2.67-.21c-.46,0-.92.05-1.39,0a1.33,1.33,0,0,1-1.16-.93,2.81,2.81,0,0,1-.09-1.72,1.3,1.3,0,0,1,1.23-1,21,21,0,0,1,5.3.43,5.41,5.41,0,0,1,2.71,1.45,3.91,3.91,0,0,1,1.14,2.63c0,.9,0,1.81,0,2.72,0,1.35,0,2.7,0,4a4.11,4.11,0,0,1-2.66,3.82,7.45,7.45,0,0,1-2.67.59c-2.63.13-5.25,0-7.88.06a9.76,9.76,0,0,1-2.16-.2,7.07,7.07,0,0,1-3.43-1.69,3.65,3.65,0,0,1-1.2-2.37,14.7,14.7,0,0,1,0-3.18A3.91,3.91,0,0,1,129,75.57a7.1,7.1,0,0,1,3.05-1.16,14.3,14.3,0,0,1,2.17-.14c2.75,0,5.49,0,8.24,0Zm-5,3.73h-5.33A1.57,1.57,0,0,0,131,79.55c0,.33,0,.65,0,1a1.56,1.56,0,0,0,1.55,1.55c3.12,0,6.23,0,9.35,0a1.55,1.55,0,0,0,1.56-1.47c0-.8,0-1.6,0-2.4,0-.16-.07-.21-.22-.2h-5.37Z"/><path class="cls-5" d="M78.17,66.39c1.87,0,3.74,0,5.62,0a1.45,1.45,0,0,1,1.48,1.09,4,4,0,0,1,0,2.26,1.41,1.41,0,0,1-1.5,1.08q-5.25,0-10.5,0a5.91,5.91,0,0,0-1.45.15,2.29,2.29,0,0,0-.75.33,1.09,1.09,0,0,0-.49.83,6.85,6.85,0,0,0,0,.79c0,2.12,0,4.25,0,6.37a3.35,3.35,0,0,0,.07.71,1.41,1.41,0,0,0,.91,1,3.6,3.6,0,0,0,1.28.32c.44,0,.88.07,1.32.07h10a1.11,1.11,0,0,1,1,.6,3.4,3.4,0,0,1,.21,2.77,1.54,1.54,0,0,1-1.51,1h-.22c-3.41,0-6.82,0-10.24,0a9.88,9.88,0,0,1-3-.41,4.66,4.66,0,0,1-3.13-3.09,7.43,7.43,0,0,1-.37-2.43c0-2.64,0-5.28,0-7.91a6,6,0,0,1,.85-3.11,4.86,4.86,0,0,1,3-2.16,8.37,8.37,0,0,1,2.23-.29C74.68,66.4,76.42,66.39,78.17,66.39Z"/><path class="cls-5" d="M109.4,82.07c1.72,0,3.44,0,5.16,0a1.07,1.07,0,0,0,1.1-.69,1,1,0,0,0-.85-1.37,2.54,2.54,0,0,0-.39,0c-1.88,0-3.75,0-5.63,0a12.23,12.23,0,0,1-2.94-.34,5.93,5.93,0,0,1-2.25-1,3.55,3.55,0,0,1-1.34-2.26,8.11,8.11,0,0,1,0-2.46,3.39,3.39,0,0,1,1.64-2.44,6.6,6.6,0,0,1,2.69-.9,23.21,23.21,0,0,1,2.35-.17c.64,0,1.27-.06,1.9,0a1.93,1.93,0,0,1,1.61.86,1.84,1.84,0,0,1-.7,2.66,2,2,0,0,1-.93.22c-1.15,0-2.29,0-3.44,0a1.21,1.21,0,0,0-.92.31,1,1,0,0,0-.26,1.12,1,1,0,0,0,.92.69,1.69,1.69,0,0,0,.32,0h6.88a7.38,7.38,0,0,1,3.26.69,3.63,3.63,0,0,1,2.06,2.6,6.51,6.51,0,0,1-.06,3,3.85,3.85,0,0,1-2.26,2.57,7.91,7.91,0,0,1-2.66.64c-.93.08-1.86,0-2.79,0h-7.63a1.86,1.86,0,0,1-.13-3.71c.29,0,.58,0,.86,0Z"/><path class="cls-5" d="M177.42,79.26V84a4.61,4.61,0,0,1,0,.53,1.46,1.46,0,0,1-1.46,1.31,7.08,7.08,0,0,1-1.22-.07,1.41,1.41,0,0,1-1.18-1.27,4.7,4.7,0,0,1,0-.53V75c0-.67-.17-.9-.82-1.07a4.16,4.16,0,0,0-1.16-.16h-6.95a5.68,5.68,0,0,0-1.24.14,1.73,1.73,0,0,0-.57.22.57.57,0,0,0-.29.47c0,.23,0,.45,0,.68q0,4.33,0,8.67a3.43,3.43,0,0,1,0,.64,1.42,1.42,0,0,1-1.4,1.2,5.8,5.8,0,0,1-1.25-.07,1.4,1.4,0,0,1-1.12-1.08,3,3,0,0,1-.08-.67c0-3.13,0-6.26,0-9.38a3.93,3.93,0,0,1,2.54-3.81A9.17,9.17,0,0,1,164,70.1c.83-.08,1.65-.07,2.47-.07,1.69,0,3.37,0,5.05,0a8.72,8.72,0,0,1,3.41.71,3.89,3.89,0,0,1,2.42,2.77,4.85,4.85,0,0,1,.12,1.14Z"/><path class="cls-5" d="M124.88,79.22v4.72a3.66,3.66,0,0,1,0,.57,1.42,1.42,0,0,1-1.47,1.29,6.23,6.23,0,0,1-1.14-.06A1.44,1.44,0,0,1,121,84.63a3.65,3.65,0,0,1-.08-.74c0-3.2,0-6.4,0-9.6,0-.43,0-.44-.44-.44a1.56,1.56,0,0,1-1.28-.52,1.24,1.24,0,0,1-.25-.43,2.64,2.64,0,0,1,0-1.69,1.38,1.38,0,0,1,1.35-1c.14,0,.28,0,.43,0s.23-.1.23-.27c0-.7,0-1.41,0-2.11a2.46,2.46,0,0,1,.14-.81,1.31,1.31,0,0,1,1.23-.92,5.64,5.64,0,0,1,1.36.06,1.38,1.38,0,0,1,1.13,1.18,3.55,3.55,0,0,1,.06.64c0,.62,0,1.24,0,1.86,0,.36,0,.37.35.37h3.51a3,3,0,0,1,.42,0,1.44,1.44,0,0,1,1.21,1,2.93,2.93,0,0,1,0,1.66,1.38,1.38,0,0,1-1.19,1,11.91,11.91,0,0,1-1.58,0h-2.39c-.37,0-.37,0-.37.38Z"/><path class="cls-5" d="M86.5,79.54c0-1.45,0-2.91,0-4.36a6.25,6.25,0,0,1,.17-1.49,4.18,4.18,0,0,1,2.62-2.92,9.83,9.83,0,0,1,3-.66c.7-.07,1.4-.07,2.1-.08A1.45,1.45,0,0,1,96,71.33a3.45,3.45,0,0,1,.06,1,1.53,1.53,0,0,1-1.59,1.48c-.64,0-1.28,0-1.93,0a4,4,0,0,0-1.19.23,2.21,2.21,0,0,0-.35.16,1,1,0,0,0-.54.94q0,4.34,0,8.66a2.87,2.87,0,0,1-.17,1.16,1.19,1.19,0,0,1-.84.76,4.25,4.25,0,0,1-1.74.07,1.35,1.35,0,0,1-1.11-1.2,5.55,5.55,0,0,1-.06-.82C86.51,82.34,86.5,80.94,86.5,79.54Z"/><path class="cls-5" d="M152.42,75.89q0,4,0,8a3.16,3.16,0,0,1,0,.75,1.43,1.43,0,0,1-1.42,1.18,6.11,6.11,0,0,1-1.21-.08,1.44,1.44,0,0,1-1.19-1.38c0-.15,0-.29,0-.43v-16a2.76,2.76,0,0,1,.09-.81,1.29,1.29,0,0,1,1.1-1,5.1,5.1,0,0,1,1.46,0,1.34,1.34,0,0,1,1.22,1.36,4.87,4.87,0,0,1,0,.54C152.42,70.61,152.41,73.25,152.42,75.89Z"/><path class="cls-5" d="M157.62,77.84v6.09a4.07,4.07,0,0,1-.05.61,1.44,1.44,0,0,1-1.43,1.26,5.74,5.74,0,0,1-1.24-.07,1.32,1.32,0,0,1-1.05-.88,2.2,2.2,0,0,1-.15-.77c0-4.14,0-8.28,0-12.42a2.19,2.19,0,0,1,.13-.77,1.25,1.25,0,0,1,.86-.85,1.86,1.86,0,0,1,.91-.09,3,3,0,0,0,.43,0,1.49,1.49,0,0,1,1.58,1.57v6.3Z"/><path class="cls-5" d="M100.83,77.86v6.23a1.79,1.79,0,0,1-.37,1.2,1.46,1.46,0,0,1-1,.5,4.37,4.37,0,0,1-1.35-.08A1.44,1.44,0,0,1,97,84.3,2.62,2.62,0,0,1,97,84c0-4.11,0-8.22,0-12.33a2.3,2.3,0,0,1,.19-1A1.27,1.27,0,0,1,98.21,70a5.83,5.83,0,0,1,1.32,0,1.4,1.4,0,0,1,1.29,1.35c0,.13,0,.26,0,.39Z"/><path class="cls-3" d="M115.57,75.91a21.07,21.07,0,0,0-1.83-5.52,29.17,29.17,0,0,0-3.68-5.82,37.17,37.17,0,0,0-9.49-8.51,24.86,24.86,0,0,0-7-3A13.4,13.4,0,0,0,90,52.65,7.19,7.19,0,0,0,86,53.87a5.87,5.87,0,0,0-2.4,3.72,10.61,10.61,0,0,0,0,3.81A18.06,18.06,0,0,0,84.94,66l.06.16a2.22,2.22,0,0,1-.63-.08,2.53,2.53,0,0,0-.78-.08l-.39,0a22.25,22.25,0,0,1-.83-3.21,13.31,13.31,0,0,1,0-5.26,7.49,7.49,0,0,1,2.13-3.74,6.49,6.49,0,0,1,2.59-1.47,9.8,9.8,0,0,1,4.1-.34,20.6,20.6,0,0,1,7.27,2.5,36.21,36.21,0,0,1,8,5.86,44.71,44.71,0,0,1,3.92,4.22,31.31,31.31,0,0,1,5.18,8.93,15.74,15.74,0,0,1,.73,2.58Z"/><path class="cls-3" d="M111.35,70a17.13,17.13,0,0,0-1.57-2.88,26.87,26.87,0,0,0-6-6.49,20.17,20.17,0,0,0-6.47-3.44,10.2,10.2,0,0,0-3.38-.47,5.25,5.25,0,0,0-2.3.61,4.13,4.13,0,0,0-2.15,2.93,7.84,7.84,0,0,0,0,3.09,16.32,16.32,0,0,0,2.07,5.19c.23.39.48.77.72,1.15-.46.07-.91.15-1.37.21a2.34,2.34,0,0,1-.52.08,19.69,19.69,0,0,1-1.91-4.42,12.81,12.81,0,0,1-.46-4,6.34,6.34,0,0,1,1.15-3.41,5,5,0,0,1,2.94-2,7.56,7.56,0,0,1,3.75,0A17.52,17.52,0,0,1,101,58.37a28.88,28.88,0,0,1,5.31,4.17,30.51,30.51,0,0,1,4.58,5.62,13.55,13.55,0,0,1,1,1.91A.71.71,0,0,1,111.35,70Z"/><path class="cls-3" d="M108.64,70a10.65,10.65,0,0,0-1.42-3.08,16.3,16.3,0,0,0-6.29-5.79,8.3,8.3,0,0,0-3.25-1,3.79,3.79,0,0,0-1.42.12,2.47,2.47,0,0,0-1.82,2.23,5.75,5.75,0,0,0,.27,2.22,11.39,11.39,0,0,0,1.82,3.55h0l0,.06a3.45,3.45,0,0,0,1.05,1.31l0,.07h0l0,.08a2.15,2.15,0,0,0-.76.57c-.06.09-.13.08-.21,0a2.57,2.57,0,0,0-1.34-.52A18.06,18.06,0,0,1,94,67.3a9.5,9.5,0,0,1-.88-4.13A4.52,4.52,0,0,1,93.66,61a3.32,3.32,0,0,1,2.6-1.74,5.67,5.67,0,0,1,3,.47,14.34,14.34,0,0,1,3.55,2.07A22.35,22.35,0,0,1,108.33,68a11.12,11.12,0,0,1,.94,2A3.31,3.31,0,0,1,108.64,70Z"/><path class="cls-5" d="M155.63,68.54a2.22,2.22,0,0,1-1.92-.85,2.12,2.12,0,0,1,1.12-3.34,2.59,2.59,0,0,1,2.5.45,1.74,1.74,0,0,1,.61.94,2.18,2.18,0,0,1-.37,2,2.27,2.27,0,0,1-1.55.8Z"/><path class="cls-5" d="M98.86,68.55A2.38,2.38,0,0,1,97.21,68a1.69,1.69,0,0,1-.52-.67,2.12,2.12,0,0,1,1.07-2.88,2.64,2.64,0,0,1,2.47.14,2.11,2.11,0,0,1-.06,3.64A2.36,2.36,0,0,1,98.86,68.55Z"/><path class="cls-3" d="M86.05,79.33a22.92,22.92,0,0,1-1.54-1.73,44.34,44.34,0,0,1-3.62-4.91l-.17-.28c.7,0,1.39,0,2.08,0a22.87,22.87,0,0,0,1.42,2,27.21,27.21,0,0,0,1.83,2.19Q86.08,77.95,86.05,79.33Z"/><path class="cls-3" d="M92.1,76.26c.78.7,1.51,1.44,2.32,2.11S95.77,79.5,96.5,80c0,.74,0,1.47,0,2.21a26.67,26.67,0,0,1-2.79-2L92.1,78.82C92.07,78,92.07,77.11,92.1,76.26Z"/><path class="cls-3" d="M107.07,81.35a12.69,12.69,0,0,1-3.95-.67l-.57-.18a17.42,17.42,0,0,1,0-1.77l.17,0a5.89,5.89,0,0,0,3.84,2.44Z"/><path class="cls-3" d="M96.5,77a15.19,15.19,0,0,1-1.87-1.62A3.73,3.73,0,0,0,96.5,75Z"/><path class="cls-3" d="M86.64,72.56a5.35,5.35,0,0,1-.47-.7,3.41,3.41,0,0,0,.9-1.83c.28.35.5.74.75,1.11l-.57.58A8.58,8.58,0,0,0,86.64,72.56Z"/><path class="cls-3" d="M112.59,75.79c0-.1,0-.2,0-.31.26-.14.52-.28.77-.43a3.07,3.07,0,0,1,0,.74A2.57,2.57,0,0,1,112.59,75.79Z"/><path class="cls-6" d="M97.7,69.69l0-.08a.07.07,0,0,1,.09,0C97.78,69.69,97.73,69.68,97.7,69.69Z"/><path class="cls-6" d="M97,85.88s-.08,0-.06-.08S97,85.84,97,85.88Z"/><path class="cls-6" d="M116.93,87.12l-.06,0C116.85,87.1,116.9,87.13,116.93,87.12Z"/><path class="cls-6" d="M97.67,69.62l0-.07S97.69,69.57,97.67,69.62Z"/><path class="cls-6" d="M96.57,68.24l0-.06S96.57,68.21,96.57,68.24Z"/><path class="cls-2" d="M189.17,78h5.19c.41,0,.4,0,.4.38,0,.69,0,1.39,0,2.08a1.59,1.59,0,0,1-1.63,1.62H187.3c-1.11,0-2.22,0-3.33,0a1.64,1.64,0,0,1-1.68-1.7c0-.26,0-.52,0-.78a1.58,1.58,0,0,1,1.59-1.6c.88,0,1.76,0,2.65,0Zm.2,1.57h-4.72a.63.63,0,0,0-.66.54,4.35,4.35,0,0,0,0,1.14c0,.31.17.4.48.4,2.91,0,5.82,0,8.74,0a1.08,1.08,0,0,0,1.1-1c0-.31,0-.64,0-1,0-.1,0-.16-.15-.15h-4.8Z"/><path class="cls-2" d="M137.86,78h5.37c.15,0,.22,0,.22.2,0,.8,0,1.6,0,2.4a1.55,1.55,0,0,1-1.56,1.47c-3.12,0-6.23,0-9.35,0A1.56,1.56,0,0,1,131,80.52c0-.32,0-.64,0-1A1.57,1.57,0,0,1,132.53,78h5.33Zm.22,1.57h-4.69a.66.66,0,0,0-.74.61,8.34,8.34,0,0,0,0,1,.44.44,0,0,0,.5.47c2.91,0,5.82,0,8.73,0a1.06,1.06,0,0,0,1.1-1.07c0-.23,0-.45,0-.68s0-.33-.32-.33Z"/></g></g></svg>